<svg xmlns="http://www.w3.org/2000/svg" version="1" viewBox="0 0 24 24" enable-background="new 0 0 24 24">
    <path style="text-indent:0;text-align:start;line-height:normal;text-transform:none;block-progression:tb;-inkscape-font-specification:Bitstream Vera Sans" d="M 6 2 C 5.4777778 2 4.9395305 2.1854695 4.5625 2.5625 C 4.1854695 2.9395305 4 3.4777778 4 4 L 4 20 C 4 20.522222 4.1854695 21.060469 4.5625 21.4375 C 4.9395305 21.814531 5.4777778 22 6 22 L 18 22 C 18.522222 22 19.060469 21.814531 19.4375 21.4375 C 19.814531 21.060469 20 20.522222 20 20 L 20 4 C 20 3.4777778 19.814531 2.9395305 19.4375 2.5625 C 19.060469 2.1854695 18.522222 2 18 2 L 6 2 z M 6 4 L 9 4 L 9 8 L 6 8 L 6 4 z M 11 4 L 18 4 L 18 8 L 11 8 L 11 4 z M 11 10 L 18 10 L 18 13 L 11 13 L 11 10 z M 6 15 L 9 15 L 9 20 L 6 20 L 6 15 z M 11 15 L 14 15 L 14 20 L 11 20 L 11 15 z"></path>
</svg>