<svg xmlns="http://www.w3.org/2000/svg" viewBox="0 0 24 24" enable-background="new 0 0 24 24">
    <path style="text-indent:0;text-align:start;line-height:normal;text-transform:none;block-progression:tb;-inkscape-font-specification:Bitstream Vera Sans" d="M 7 7 C 4.2545455 7 2 9.2545455 2 12 C 2 14.8 4.2 17 7 17 C 9 17 10.30625 15.9875 11.40625 14.6875 C 11.00625 14.0875 10.6125 13.6 10.3125 13 C 10.3125 13 10.2875 12.90625 10.1875 12.90625 C 9.2875 14.10625 8.4 15 7 15 C 5.3 15 4 13.7 4 12 C 4 10.345455 5.3454545 9 7 9 C 7.9833333 9 8.6281399 9.3417643 9.28125 9.96875 C 9.9343601 10.595736 10.53125 11.53125 11.15625 12.53125 C 11.78125 13.53125 12.43436 14.595736 13.34375 15.46875 C 14.25314 16.341764 15.483333 17 17 17 C 19.745455 17 22 14.745455 22 12 C 22 9.2 19.8 7 17 7 C 15 7 13.69375 8.0125 12.59375 9.3125 C 12.99375 9.9125 13.2875 10.40625 13.6875 10.90625 C 13.6875 11.00625 13.8125 10.99375 13.8125 11.09375 C 14.7125 9.79375 15.6 9 17 9 C 18.7 9 20 10.3 20 12 C 20 13.654545 18.654545 15 17 15 C 16.016667 15 15.37186 14.658236 14.71875 14.03125 C 14.06564 13.404264 13.46875 12.46875 12.84375 11.46875 C 12.21875 10.46875 11.56564 9.4042643 10.65625 8.53125 C 9.7468601 7.6582357 8.5166667 7 7 7 z" color="#000" overflow="visible" enable-background="accumulate" font-family="Bitstream Vera Sans"></path>
</svg>