<svg xmlns="http://www.w3.org/2000/svg" width="50" height="50" viewBox="0 0 50 50">
    <path d="M 13.34375 12 C 6.1942472 12 0.51189833 17.214615 0 24.03125 L 0 24.375 C -0.010825496 24.594916 -0.03125 24.808266 -0.03125 25.03125 C -0.03125 25.1934 -0.0052276226 25.349004 0.03125 25.5 C 0.2665337 32.660615 5.8493447 38 13.21875 38 C 18.63375 38 21.41425 34.53875 23.40625 30.84375 C 22.55625 29.47275 21.7835 28.094 21.0625 26.75 C 19.0915 31.081 17.25475 34.09375 13.21875 34.09375 C 7.9776639 34.09375 4.1350597 30.470263 3.9375 25.4375 C 3.9641562 25.307344 3.96875 25.16925 3.96875 25.03125 C 3.96875 19.88525 8.00075 16 13.34375 16 C 17.28575 16 19.46675 19.538 22.59375 25.375 C 25.75475 31.273 29.34025 37.96875 37.15625 37.96875 C 43.808396 37.96875 49.443656 32.600936 49.96875 26.03125 C 49.977794 25.918097 49.994029 25.80134 50 25.6875 C 50.011376 25.470614 50.03125 25.250406 50.03125 25.03125 C 50.03125 24.8691 50.005228 24.713496 49.96875 24.5625 C 49.724526 17.485448 44.073407 12 36.875 12 C 31.384 12 28.40625 15.67075 26.28125 19.59375 C 26.84425 20.57775 27.353 21.5865 27.875 22.5625 C 28.109 22.9995 28.3385 23.4025 28.5625 23.8125 C 30.5425 19.4835 32.557 15.90625 36.875 15.90625 C 42.112906 15.90625 45.924912 19.620543 46.0625 24.75 C 46.049689 24.841412 46.03125 24.936325 46.03125 25.03125 C 46.03125 29.79325 41.88925 33.96875 37.15625 33.96875 C 31.73425 33.96875 29.012 28.887 26.125 23.5 C 23.097 17.849 19.96475 12 13.34375 12 z"></path>
</svg>