<svg xmlns="http://www.w3.org/2000/svg" viewBox="0 0 24 24" enable-background="new 0 0 24 24">
    <path style="text-indent:0;text-align:start;line-height:normal;text-transform:none;block-progression:tb;-inkscape-font-specification:Bitstream Vera Sans" d="M 16 2 L 16 4 C 18.27619 4 20 5.7238095 20 8 L 22 8 C 22 4.6761905 19.32381 2 16 2 z M 16 5 L 16 7 C 16.554545 7 17 7.4454545 17 8 L 19 8 C 19 6.3545455 17.645455 5 16 5 z M 11.84375 6 C 11.31875 6 10.80625 6.19375 10.40625 6.59375 L 2.6875 14.3125 C 1.8875 15.1125 1.8875 16.3875 2.6875 17.1875 L 6.8125 21.3125 C 7.6125 22.1125 8.8875 22.1125 9.6875 21.3125 L 17.40625 13.59375 C 18.20625 12.89375 18.20625 11.4875 17.40625 10.6875 L 13.3125 6.59375 C 12.9125 6.19375 12.36875 6 11.84375 6 z M 12 9 C 13.7 9 15 10.3 15 12 C 15 13.7 13.7 15 12 15 C 10.3 15 9 13.7 9 12 C 9 10.3 10.3 9 12 9 z M 12 10.5 C 11.171573 10.5 10.5 11.171573 10.5 12 C 10.5 12.828427 11.171573 13.5 12 13.5 C 12.828427 13.5 13.5 12.828427 13.5 12 C 13.5 11.171573 12.828427 10.5 12 10.5 z M 6 14 C 6.6 14 7 14.4 7 15 C 7 15.6 6.6 16 6 16 C 5.4 16 5 15.6 5 15 C 5 14.4 5.4 14 6 14 z M 9 17 C 9.6 17 10 17.4 10 18 C 10 18.6 9.6 19 9 19 C 8.4 19 8 18.6 8 18 C 8 17.4 8.4 17 9 17 z" color="#000" overflow="visible" enable-background="accumulate" font-family="Bitstream Vera Sans"></path>
</svg>