<svg xmlns="http://www.w3.org/2000/svg" viewBox="0 0 24 24" enable-background="new 0 0 24 24">
    <path style="text-indent:0;text-align:start;line-height:normal;text-transform:none;block-progression:tb;-inkscape-font-specification:Bitstream Vera Sans" d="M 4.8125 2 C 3.2125 2 2 3.4151515 2 5 C 2 6.5848485 3.2125 8 4.8125 8 L 5 8 L 5 17 C 5 19.9 6.8333333 22 9 22 L 19.6875 22 C 20.466071 22 21.074772 21.522388 21.4375 20.96875 C 21.800228 20.415112 22 19.731818 22 19 C 22 18.268182 21.800228 17.584888 21.4375 17.03125 C 21.074772 16.477612 20.466071 16 19.6875 16 L 18 16 L 18 7 C 18 4.1 16.166667 2 14 2 L 4.8125 2 z M 4.8125 4 L 11.21875 4 C 11.106841 4.3114553 11 4.6389204 11 5 C 11 5.3610796 11.106841 5.6885447 11.21875 6 L 4.8125 6 C 4.4125 6 4 5.6151515 4 5 C 4 4.3848485 4.4125 4 4.8125 4 z M 13.96875 4 A 1.001098 1.001098 0 0 0 14 4 C 14.833333 4 16 4.9 16 7 L 16 17 C 16 18.146888 16.230603 19.173353 16.65625 20 L 9 20 C 8.1666667 20 7 19.1 7 17 L 7 8 L 14 8 L 14 7 L 14 6 C 13.533333 6 13 5.6444444 13 5 C 13 4.3697334 13.509765 4.0152687 13.96875 4 z M 9 10 L 9 12 L 14 12 L 14 10 L 9 10 z M 9 14 L 9 16 L 14 16 L 14 14 L 9 14 z M 18.09375 18 L 19.6875 18 C 19.709392 18.013738 19.732132 18.05003 19.78125 18.125 C 19.893522 18.296362 20 18.631818 20 19 C 20 19.368182 19.893522 19.703638 19.78125 19.875 C 19.732131 19.949971 19.709392 19.986262 19.6875 20 C 19.270833 20 18.928563 19.815922 18.59375 19.34375 C 18.374876 19.035082 18.196632 18.572842 18.09375 18 z" color="#000" overflow="visible" enable-background="accumulate" font-family="Bitstream Vera Sans"></path>
</svg>