<svg xmlns="http://www.w3.org/2000/svg" viewBox="0 0 26 26" enable-background="new 0 0 26 26">
    <path style="text-indent:0;text-align:start;line-height:normal;text-transform:none;block-progression:tb;-inkscape-font-specification:Bitstream Vera Sans" d="M 3 0 C 2.0560606 0 1.2463614 0.57651582 0.75 1.3125 C 0.25363857 2.0484842 0 2.9735294 0 4 C 0 5.0264706 0.25363857 5.9515158 0.75 6.6875 C 1.2463614 7.4234842 2.0560606 8 3 8 L 4 8 L 4 21 C 4 24.1 6 26 8 26 L 16.40625 26 C 15.60625 25.5 14.8125 24.8 14.3125 24 L 8 24 C 7 24 6 22.9 6 21 L 6 8 L 17 8 A 1.0001 1.0001 0 0 0 17 6 C 16.843939 6 16.634889 5.9327658 16.40625 5.59375 C 16.177611 5.2547342 16 4.6735294 16 4 C 16 3.3264706 16.177611 2.7452658 16.40625 2.40625 C 16.622785 2.0851821 16.815726 2.007285 16.96875 2 A 1.001098 1.001098 0 0 0 17 2 C 17.833333 2 19 2.9 19 5 L 19 10 A 1.0001 1.0001 0 0 0 19 10.09375 L 19 13.09375 C 19.3 12.99375 19.7 13 20 13 C 20.3 13 20.7 12.99375 21 13.09375 L 21 10.15625 A 1.0001 1.0001 0 0 0 21 10 L 21 7 L 21 5 C 21 2.1 19.166667 0 17 0 L 3 0 z M 3 2 L 14.5625 2 C 14.283366 2.6182577 14 3.2356837 14 4 C 14 4.7643163 14.283366 5.3817423 14.5625 6 L 3 6 C 2.8439394 6 2.6348886 5.9327658 2.40625 5.59375 C 2.1776114 5.2547342 2 4.6735294 2 4 C 2 3.3264706 2.1776114 2.7452658 2.40625 2.40625 C 2.6348886 2.0672342 2.8439394 2 3 2 z M 9 10 C 8.4477153 10 8 10.447715 8 11 C 8 11.552285 8.4477153 12 9 12 C 9.5522847 12 10 11.552285 10 11 C 10 10.447715 9.5522847 10 9 10 z M 11.8125 10 A 1.001098 1.001098 0 0 0 12 12 L 16 12 A 1.0001 1.0001 0 1 0 16 10 L 12 10 A 1.0001 1.0001 0 0 0 11.90625 10 A 1.001098 1.001098 0 0 0 11.8125 10 z M 9 14 C 8.4477153 14 8 14.447715 8 15 C 8 15.552285 8.4477153 16 9 16 C 9.5522847 16 10 15.552285 10 15 C 10 14.447715 9.5522847 14 9 14 z M 12 14 C 11.4 14 11 14.4 11 15 C 11 15.6 11.4 16 12 16 L 14.3125 16 C 14.8125 15.2 15.5125 14.59375 16.3125 14.09375 C 16.2125 13.99375 16.1 14 16 14 L 12 14 z M 20 14 C 16.7 14 14 16.7 14 20 C 14 23.3 16.7 26 20 26 C 23.3 26 26 23.3 26 20 C 26 16.7 23.3 14 20 14 z M 19 17 L 21 17 L 21 19 L 23 19 L 23 21 L 21 21 L 21 23 L 19 23 L 19 21 L 17 21 L 17 19 L 19 19 L 19 17 z M 9 18 C 8.4477153 18 8 18.447715 8 19 C 8 19.552285 8.4477153 20 9 20 C 9.5522847 20 10 19.552285 10 19 C 10 18.447715 9.5522847 18 9 18 z M 12 18 C 11.4 18 11 18.4 11 19 C 11 19.6 11.4 20 12 20 L 13 20 C 13 19.3 13.1125 18.6 13.3125 18 L 12 18 z"></path>
</svg>