<svg xmlns="http://www.w3.org/2000/svg" width="50" height="50" viewBox="0 0 50 50">
    <path d="M 5 0 C 2.243 0 0 3.14 0 7 C 0 10.86 2.243 14 5 14 L 33 14 C 33.553 14 34 13.552 34 13 C 34 12.448 33.553 12 33 12 C 31.402 12 30 9.664 30 7 C 30 6.759 30.0345 6.504 30.0625 6.25 C 30.1185 5.698 30.215 5.1725 30.375 4.6875 C 30.409 4.5755 30.461 4.486 30.5 4.375 C 30.518 4.331 30.51325 4.26275 30.53125 4.21875 C 31.17925 2.45575 32.67175 0.5315 34.46875 0.1875 C 33.68775 -0.0005 33.355 0 33 0 L 5 0 z M 36.625 1.3125 C 33.815 1.9705 32.83925 3.7635 32.40625 4.9375 C 32.39225 4.9745 32.389 5.0265 32.375 5.0625 C 32.348 5.1395 32.31825 5.1925 32.28125 5.3125 C 32.16125 5.6745 32.07325 6.05975 32.03125 6.46875 C 32.00825 6.68275 32 6.861 32 7 C 32 8.717 32.7445 9.821 33.0625 10 C 34.6855 10.035 36 11.368 36 13 C 36 14.654 34.654 16 33 16 L 8 16 L 8 41 C 8 46.634 12.808 50 17 50 L 40 50 C 45.511003 50 50 45.511003 50 40 C 50 34.488997 45.511003 30 40 30 L 40 27 L 40 20.15625 L 40 13 L 40 9 C 40 5.424 38.55 2.7805 36.625 1.3125 z M 15 21 L 17 21 C 17.552 21 18 21.448 18 22 C 18 22.552 17.552 23 17 23 L 15 23 C 14.448 23 14 22.552 14 22 C 14 21.448 14.448 21 15 21 z M 21 21 L 33 21 C 33.553 21 34 21.448 34 22 C 34 22.552 33.553 23 33 23 L 21 23 C 20.448 23 20 22.552 20 22 C 20 21.448 20.448 21 21 21 z M 15 27 L 17 27 C 17.552 27 18 27.447 18 28 C 18 28.553 17.552 29 17 29 L 15 29 C 14.448 29 14 28.553 14 28 C 14 27.447 14.448 27 15 27 z M 21 27 L 33 27 C 33.553 27 34 27.447 34 28 C 34 28.553 33.553 29 33 29 L 21 29 C 20.448 29 20 28.553 20 28 C 20 27.447 20.448 27 21 27 z M 40 32 C 44.430123 32 48 35.569877 48 40 C 48 44.430123 44.430123 48 40 48 C 35.569877 48 32 44.430123 32 40 C 32 35.569877 35.569877 32 40 32 z M 15 33 L 17 33 C 17.552 33 18 33.447 18 34 C 18 34.553 17.552 35 17 35 L 15 35 C 14.448 35 14 34.553 14 34 C 14 33.447 14.448 33 15 33 z M 21 33 L 32.875 33 C 32.289512 33.595678 31.797906 34.273887 31.375 35 L 21 35 C 20.448 35 20 34.553 20 34 C 20 33.447 20.448 33 21 33 z M 39 35 L 39 39 L 35 39 L 35 41 L 39 41 L 39 45 L 41 45 L 41 41 L 45 41 L 45 39 L 41 39 L 41 35 L 39 35 z M 15 39 L 17 39 C 17.552 39 18 39.447 18 40 C 18 40.553 17.552 41 17 41 L 15 41 C 14.448 41 14 40.553 14 40 C 14 39.447 14.448 39 15 39 z M 21 39 L 30.0625 39 C 30.030287 39.325757 30 39.665962 30 40 C 30 40.334038 30.030287 40.674243 30.0625 41 L 21 41 C 20.448 41 20 40.553 20 40 C 20 39.447 20.448 39 21 39 z"></path>
</svg>