<svg xmlns="http://www.w3.org/2000/svg" viewBox="0 0 26 26" enable-background="new 0 0 26 26">
    <path style="text-indent:0;text-align:start;line-height:normal;text-transform:none;block-progression:tb;-inkscape-font-specification:Bitstream Vera Sans" d="M 3 0 C 2.0560606 0 1.2463614 0.57651582 0.75 1.3125 C 0.25363857 2.0484842 0 2.9735294 0 4 C 0 5.0264706 0.25363857 5.9515158 0.75 6.6875 C 1.2463614 7.4234842 2.0560606 8 3 8 L 4 8 L 4 21 C 4 23.769637 5.6809969 25.790945 7.71875 25.96875 A 1.0001 1.0001 0 0 0 7.9375 26 C 7.9587929 26.000407 7.9786409 26 8 26 L 23 26 C 23.031916 26 23.062148 26.001302 23.09375 26 A 1.0001 1.0001 0 0 0 23.34375 25.96875 C 24.137883 25.848339 24.815684 25.331486 25.25 24.6875 C 25.746361 23.951516 26 23.026471 26 22 C 26 20.973529 25.746361 20.048484 25.25 19.3125 C 24.753639 18.576516 23.943939 18 23 18 L 21 18 L 21 14.15625 A 1.0001 1.0001 0 0 0 21 14 L 21 7 A 1.0001 1.0001 0 0 0 21 6.8125 L 21 5 C 21 2.1 19.166667 0 17 0 L 3 0 z M 3 2 L 14.5625 2 C 14.283366 2.6182577 14 3.2356837 14 4 C 14 4.7643163 14.283366 5.3817423 14.5625 6 L 5.21875 6 A 1.0001 1.0001 0 0 0 4.90625 5.96875 A 1.0001 1.0001 0 0 0 4.8125 6 L 3 6 C 2.8439394 6 2.6348886 5.9327658 2.40625 5.59375 C 2.1776114 5.2547342 2 4.6735294 2 4 C 2 3.3264706 2.1776114 2.7452658 2.40625 2.40625 C 2.6348886 2.0672342 2.8439394 2 3 2 z M 16.96875 2 A 1.0043849 1.0043849 0 0 0 17 2 C 17.833333 2 19 2.9 19 5 L 19 6.8125 A 1.0001 1.0001 0 0 0 19 7 L 19 14 A 1.0001 1.0001 0 0 0 19 14.09375 L 19 18.53125 A 1.0043849 1.0043849 0 0 0 19 19.40625 L 19 21 C 19 22.160697 19.290051 23.178961 19.78125 24 L 8 24 C 7.1666667 24 6 23.1 6 21 L 6 8 L 17 8 A 1.0001 1.0001 0 0 0 17 6 C 16.843939 6 16.634889 5.9327658 16.40625 5.59375 C 16.177611 5.2547342 16 4.6735294 16 4 C 16 3.3264706 16.177611 2.7452658 16.40625 2.40625 C 16.622785 2.0851821 16.815726 2.007285 16.96875 2 z M 9 10 C 8.4477153 10 8 10.447715 8 11 C 8 11.552285 8.4477153 12 9 12 C 9.5522847 12 10 11.552285 10 11 C 10 10.447715 9.5522847 10 9 10 z M 11.71875 10 A 1.0043849 1.0043849 0 0 0 12 12 L 16 12 A 1.0001 1.0001 0 1 0 16 10 L 12 10 A 1.0001 1.0001 0 0 0 11.90625 10 A 1.001098 1.001098 0 0 0 11.8125 10 A 1.0043849 1.0043849 0 0 0 11.71875 10 z M 9 14 C 8.4477153 14 8 14.447715 8 15 C 8 15.552285 8.4477153 16 9 16 C 9.5522847 16 10 15.552285 10 15 C 10 14.447715 9.5522847 14 9 14 z M 11.71875 14 A 1.0043849 1.0043849 0 0 0 12 16 L 16 16 A 1.0001 1.0001 0 1 0 16 14 L 12 14 A 1.0001 1.0001 0 0 0 11.90625 14 A 1.001098 1.001098 0 0 0 11.8125 14 A 1.0043849 1.0043849 0 0 0 11.71875 14 z M 9 18 C 8.4477153 18 8 18.447715 8 19 C 8 19.552285 8.4477153 20 9 20 C 9.5522847 20 10 19.552285 10 19 C 10 18.447715 9.5522847 18 9 18 z M 11.71875 18 A 1.0043849 1.0043849 0 0 0 12 20 L 16 20 A 1.0001 1.0001 0 1 0 16 18 L 12 18 A 1.0001 1.0001 0 0 0 11.90625 18 A 1.001098 1.001098 0 0 0 11.8125 18 A 1.0043849 1.0043849 0 0 0 11.71875 18 z M 21 20 L 23 20 C 23.156061 20 23.365111 20.06723 23.59375 20.40625 C 23.822389 20.745266 24 21.326471 24 22 C 24 22.673529 23.822389 23.254734 23.59375 23.59375 C 23.38932 23.89687 23.211735 23.985219 23.0625 24 C 23.044827 24.00175 23.016524 24 23 24 C 22.166667 24 21 23.1 21 21 L 21 20 z"></path>
</svg>