<svg xmlns="http://www.w3.org/2000/svg" width="50" height="50" viewBox="0 0 50 50">
    <path d="M 5 0 C 2.243 0 0 3.14 0 7 C 0 10.86 2.243 14 5 14 L 33 14 C 33.553 14 34 13.552 34 13 C 34 12.448 33.553 12 33 12 C 31.402 12 30 9.664 30 7 C 30 6.759 30.0345 6.504 30.0625 6.25 C 30.1185 5.698 30.215 5.1725 30.375 4.6875 C 30.409 4.5755 30.461 4.486 30.5 4.375 C 30.518 4.331 30.51325 4.26275 30.53125 4.21875 C 31.18025 2.45575 32.67175 0.5315 34.46875 0.1875 C 33.68775 -0.0005 33.356 0 33 0 L 5 0 z M 36.625 1.3125 C 33.816 1.9705 32.83925 3.7635 32.40625 4.9375 C 32.39325 4.9745 32.389 5.0265 32.375 5.0625 C 32.348 5.1395 32.31825 5.1925 32.28125 5.3125 C 32.16125 5.6745 32.07325 6.05975 32.03125 6.46875 C 32.00825 6.68275 32 6.861 32 7 C 32 8.717 32.7445 9.821 33.0625 10 C 34.6865 10.035 36 11.368 36 13 C 36 14.654 34.654 16 33 16 L 8 16 L 8 41 C 8 46.634 11.559 50 15 50 L 45 50 C 45.126 50 45.23275 49.9805 45.34375 49.9375 C 42.97775 49.1225 40 46.583 40 41.375 L 40 41 L 40 34.375 L 40 27 L 40 13 L 40 9 C 40 5.424 38.552 2.7805 36.625 1.3125 z M 15 21 L 17 21 C 17.552 21 18 21.448 18 22 C 18 22.552 17.552 23 17 23 L 15 23 C 14.448 23 14 22.552 14 22 C 14 21.448 14.448 21 15 21 z M 21 21 L 33 21 C 33.553 21 34 21.448 34 22 C 34 22.552 33.553 23 33 23 L 21 23 C 20.448 23 20 22.552 20 22 C 20 21.448 20.448 21 21 21 z M 15 27 L 17 27 C 17.552 27 18 27.447 18 28 C 18 28.553 17.552 29 17 29 L 15 29 C 14.448 29 14 28.553 14 28 C 14 27.447 14.448 27 15 27 z M 21 27 L 33 27 C 33.553 27 34 27.447 34 28 C 34 28.553 33.553 29 33 29 L 21 29 C 20.448 29 20 28.553 20 28 C 20 27.447 20.448 27 21 27 z M 15 33 L 17 33 C 17.552 33 18 33.447 18 34 C 18 34.553 17.552 35 17 35 L 15 35 C 14.448 35 14 34.553 14 34 C 14 33.447 14.448 33 15 33 z M 21 33 L 33 33 C 33.553 33 34 33.447 34 34 C 34 34.553 33.553 35 33 35 L 21 35 C 20.448 35 20 34.553 20 34 C 20 33.447 20.448 33 21 33 z M 42 36 L 42 41.40625 C 42 44.95825 43.99 46.6455 44.875 47.3125 C 45.646 47.8935 46.34475 48.40075 48.09375 48.46875 C 49.24575 47.18475 50 45.217 50 43 C 50 39.141 47.757 36 45 36 L 42 36 z"></path>
</svg>