<svg xmlns="http://www.w3.org/2000/svg" viewBox="0 0 24 24" enable-background="new 0 0 24 24">
    <path style="text-indent:0;text-align:start;line-height:normal;text-transform:none;block-progression:tb;-inkscape-font-specification:Bitstream Vera Sans" d="M 12 2 L 12 4 L 19 4 L 19 16 L 21 16 L 21 4 C 21 3.4777778 20.814531 2.9395305 20.4375 2.5625 C 20.060469 2.1854695 19.522222 2 19 2 L 12 2 z M 9 5 L 9 7 L 16 7 L 16 19 L 18 19 L 18 7 C 18 6.4777778 17.814531 5.9395305 17.4375 5.5625 C 17.060469 5.1854695 16.522222 5 16 5 L 9 5 z M 6 8 C 5.4777778 8 4.9395305 8.1854695 4.5625 8.5625 C 4.1854695 8.9395305 4 9.4777778 4 10 L 4 20 C 4 20.522222 4.1854695 21.060469 4.5625 21.4375 C 4.9395305 21.814531 5.4777778 22 6 22 L 13 22 C 13.522222 22 14.060469 21.814531 14.4375 21.4375 C 14.814531 21.060469 15 20.522222 15 20 L 15 10 C 15 9.4777778 14.814531 8.9395305 14.4375 8.5625 C 14.060469 8.1854695 13.522222 8 13 8 L 6 8 z M 6 10 L 13 10 L 13 19 L 6 19 L 6 10 z" color="#000" overflow="visible" enable-background="accumulate" font-family="Bitstream Vera Sans"></path>
</svg>