<svg xmlns="http://www.w3.org/2000/svg" width="24" height="24" viewBox="0 0 24 24">
    <path d="M 5 0 C 0.4 0 0 0.6875 0 0.6875 L 0 15.1875 C 0 15.1875 0.6 15.90625 5 15.90625 L 6 15.90625 L 6 14 L 1 14 L 1 2 L 9 2 L 9 3.09375 C 9.3 3.09375 9.6 3 10 3 L 10 0.6875 C 10 0.6875 9.6 0 5 0 z M 12 4 C 7.4 4 7 4.6875 7 4.6875 L 7 19.1875 C 7 19.1875 7.6 19.90625 12 19.90625 L 13 19.90625 L 13 18 L 8 18 L 8 6 L 16 6 L 16 7.09375 C 16.3 7.09375 16.6 7 17 7 L 17 4.6875 C 17 4.6875 16.6 4 12 4 z M 19 8 C 14.4 8 14 8.6875 14 8.6875 L 14 23.1875 C 14 23.1875 14.6 23.90625 19 23.90625 C 23.4 23.90625 24 23.1875 24 23.1875 L 24 8.6875 C 24 8.6875 23.6 8 19 8 z M 15 10 L 23 10 L 23 22 L 15 22 L 15 10 z"></path>
</svg>