<svg xmlns="http://www.w3.org/2000/svg" viewBox="0 0 24 24" enable-background="new 0 0 24 24">
    <path style="text-indent:0;text-align:start;line-height:normal;text-transform:none;block-progression:tb;-inkscape-font-specification:Bitstream Vera Sans" d="M 11 1 L 11 4 L 13 4 L 13 1 L 11 1 z M 4.90625 3.5 L 3.5 4.90625 L 5.28125 6.71875 L 6.71875 5.28125 L 4.90625 3.5 z M 19.09375 3.5 L 17.28125 5.28125 L 18.71875 6.71875 L 20.5 4.90625 L 19.09375 3.5 z M 8.6875 6 C 7.2208333 6 6.0017222 7.0851389 5.71875 8.5 L 5.71875 8.53125 L 5.71875 8.5625 L 4.125 20 L 3 20 L 3 22 L 3.84375 22 L 20.15625 22 L 21 22 L 21 20 L 19.875 20 L 18.1875 8.59375 C 18.186504 8.58379 18.1886 8.572429 18.1875 8.5625 C 18.025444 7.097834 16.769291 6 15.3125 6 L 8.6875 6 z M 8.6875 8 L 15.3125 8 C 15.845833 8 16.166696 8.2919569 16.21875 8.8125 L 16.21875 8.84375 L 16.25 9 L 9.40625 9 C 9.20625 9 9.00625 9.20625 8.90625 9.40625 L 7.4375 20 L 6.15625 20 L 7.6875 8.90625 C 7.8045278 8.3211111 8.1541667 8 8.6875 8 z M 1 11 L 1 13 L 4 13 L 4 11 L 1 11 z M 20 11 L 20 13 L 23 13 L 23 11 L 20 11 z"></path>
</svg>